<svg width="202" height="151" viewBox="0 0 202 151" fill="none" xmlns="http://www.w3.org/2000/svg">
<path d="M199.955 75.0775L199.915 75.0708H199.874L144.556 75.0708H144.536L144.516 75.0724C143.872 75.1243 143.406 75.4492 143.126 75.9096C142.858 76.3482 142.774 76.88 142.795 77.3672C142.816 77.8573 142.944 78.3553 143.159 78.7536C143.362 79.1299 143.712 79.5356 144.228 79.5929C144.332 79.6044 144.49 79.6046 144.658 79.6028C144.796 79.6013 144.964 79.5978 145.156 79.5938C145.213 79.5926 145.271 79.5914 145.332 79.5902C145.867 79.5794 146.57 79.5677 147.383 79.5789C149.011 79.6013 151.074 79.7152 153.112 80.1067C155.156 80.4994 157.134 81.164 158.625 82.2611C160.097 83.3448 161.098 84.8514 161.224 86.9892C161.681 94.7155 161.562 118.882 161.513 129.008C161.503 130.939 161.496 132.36 161.496 133.058C161.496 134.915 160.044 136.282 157.876 137.245C155.734 138.196 153.072 138.662 151.063 138.796C149.041 138.93 146.265 138.93 143.984 138.896C142.846 138.879 141.835 138.854 141.109 138.833C140.746 138.822 140.454 138.813 140.253 138.806L140.022 138.798L139.963 138.796L139.948 138.795L139.944 138.795L139.943 138.795L139.943 138.795L139.467 138.777L139.425 139.251C139.233 141.447 138.931 143.039 138.313 144.46C137.696 145.877 136.748 147.159 135.209 148.704L134.396 149.52L135.548 149.556L135.563 149.057C135.548 149.556 135.548 149.556 135.548 149.556L135.548 149.556L135.55 149.556L135.555 149.556L135.574 149.557L135.649 149.559C135.715 149.561 135.813 149.564 135.94 149.567C136.195 149.574 136.567 149.584 137.038 149.595C137.981 149.616 139.32 149.641 140.906 149.658C144.077 149.692 148.241 149.692 152.203 149.556C156.2 149.419 163.25 148.383 169.988 146.539C173.358 145.616 176.666 144.487 179.482 143.159C182.288 141.837 184.653 140.295 186.092 138.525L186.203 138.389L186.204 138.213L186.476 88.6062C186.676 85.858 187.528 83.9537 188.679 82.6267C189.835 81.2933 191.327 80.5051 192.863 80.0499C195.414 79.2936 197.975 79.4729 199.242 79.5615C199.519 79.5809 199.734 79.5959 199.874 79.5959C200.443 79.5959 200.854 79.2485 201.103 78.8466C201.35 78.448 201.478 77.9439 201.497 77.4551C201.517 76.9657 201.431 76.4404 201.196 76.0007C200.956 75.5498 200.548 75.1758 199.955 75.0775Z" fill="white" stroke="white"/>
<path d="M143.245 11.4936L143.164 11.9834L143.653 12.0686C144.715 12.2535 145.793 12.4123 146.892 12.5742C152.658 13.4236 159.001 14.358 166.618 19.581C174.64 25.0808 177.065 32.5693 177.905 35.1641C178.011 35.4897 178.091 35.7383 178.155 35.8962C178.407 36.5245 178.807 38.2358 179.152 39.8478C179.321 40.6414 179.474 41.3933 179.584 41.9468C179.64 42.2236 179.684 42.4506 179.715 42.6083L179.75 42.7905L179.759 42.838L179.762 42.85L179.762 42.853L179.763 42.8538L179.763 42.8539L180.254 42.76L179.763 42.854L179.84 43.26H180.254H183.796H184.273L184.296 42.7839L184.568 37.0894L184.568 37.0894L184.568 37.0789L185.386 6.4372L185.397 6.01107L184.978 5.93244C166.318 2.4303 157.202 1.81913 142.171 1.03117L141.283 0.984628L141.704 1.76748C142.758 3.72452 143.291 5.20764 143.492 6.65794C143.693 8.11161 143.567 9.56943 143.245 11.4936Z" fill="white" stroke="white"/>
<path d="M93.6907 21.9507L94.3978 21.1957L93.3669 21.1106C89.5404 20.795 84.4876 20.5231 80.183 20.4661C78.0317 20.4376 76.0585 20.4626 74.5155 20.5638C73.7448 20.6144 73.0714 20.6847 72.5324 20.7792C72.017 20.8695 71.5488 20.9936 71.2493 21.1923C70.7912 21.4961 70.1721 22.0673 69.4583 22.807C68.736 23.5555 67.8909 24.5043 66.9761 25.588C65.1463 27.7558 63.0265 30.4779 61.037 33.2486L61.0203 33.2718L61.0064 33.2967C56.3921 41.5751 53.5979 48.0109 51.8483 54.4852C50.0992 60.9577 49.4006 67.4458 48.9538 75.8153L48.9525 75.8395L48.9536 75.8637C49.3886 85.8418 51.442 95.7874 54.2787 103.925C55.6972 107.995 57.3145 111.621 59.029 114.577C60.7396 117.527 62.5641 119.84 64.4093 121.252C67.9814 123.987 70.6853 125.441 73.2018 126.311C75.4382 127.083 77.5121 127.387 79.8554 127.731C80.1384 127.772 80.4253 127.814 80.7169 127.858C83.4909 128.272 87.2791 128.27 91.2267 128.168C92.5864 128.133 93.9652 128.086 95.3325 128.04C97.9569 127.951 100.539 127.863 102.863 127.863H104.248L103.183 126.979C98.109 122.765 93.9304 119.056 90.1312 114.019C86.3362 108.988 82.9043 102.609 79.3615 93.0483C75.525 77.7661 75.1105 68.6408 77.4699 52.0553C78.6581 44.8438 80.3059 39.9031 82.8436 35.4862C85.388 31.0577 88.8408 27.1298 93.6907 21.9507Z" fill="white" stroke="white"/>
<path d="M133.611 6.72206L133.634 6.29487L133.215 6.20588C113.58 2.03026 101.563 0.468692 80.2454 0.500475L80.2324 0.500494L80.2195 0.501185C68.151 1.14547 59.3109 2.27594 51.5368 4.52492C43.7556 6.77596 37.0657 10.1407 29.2874 15.2249L29.2645 15.2398L29.2434 15.2572C20.1561 22.73 14.041 29.0501 9.75851 36.2259C5.47418 43.4049 3.0453 51.4044 1.27247 62.2028L1.27098 62.2118L1.26983 62.2209C-2.5336 92.2172 8.22627 116.585 23.2586 128.3C30.71 134.107 37.2793 138.475 45.4203 141.83C53.5578 145.183 63.2405 147.514 76.912 149.281L76.9247 149.283L76.9375 149.284C91.0142 150.374 100.016 150.285 115.745 147.924C119.358 147.382 122.418 146.138 124.719 144.747C127.001 143.368 128.592 141.811 129.198 140.604C129.779 139.447 130.661 136.394 131.54 131.582C132.423 126.746 133.311 120.084 133.883 111.67L133.919 111.136H133.384H130.386H129.995L129.901 111.516C129.106 114.735 128.046 117.872 126.906 120.515C125.762 123.168 124.553 125.283 123.474 126.487C121.226 128.995 118.438 132.025 112.465 134.773L112.462 134.774C110.051 135.899 107.83 136.43 101.442 137.352C101.039 137.389 100.649 137.426 100.27 137.462C95.9848 137.865 93.1457 138.132 90.2228 138.121C87.0467 138.11 83.7616 137.77 78.4187 136.903C67.8494 135.188 57.9157 129.255 47.6153 120.49C43.3885 116.15 40.3227 112.362 37.6869 107.763C35.0478 103.159 32.8292 97.7247 30.3164 90.082C28.1195 80.0281 27.6074 73.5029 28.6963 59.3482C29.4682 52.502 30.4727 47.4186 32.1287 42.7262C33.7813 38.0431 36.0906 33.7273 39.4965 28.4225C46.7066 20.5018 53.3637 15.606 61.9784 13.0177C70.6167 10.4222 81.2719 10.1316 96.5092 11.5277C110.25 15.1402 117.471 18.7185 123.425 26.2209C125.187 29.6123 126.058 33.7272 126.484 37.0249C126.698 38.6757 126.799 40.1116 126.847 41.1339C126.871 41.6449 126.881 42.0521 126.886 42.3307C126.887 42.3885 126.887 42.4407 126.888 42.4872C126.888 42.5528 126.889 42.6069 126.889 42.6489C126.889 42.6663 126.889 42.6816 126.889 42.6949C126.889 42.7089 126.889 42.7205 126.889 42.7297L126.889 42.7496L126.889 42.7542L126.889 42.7552V42.7552L126.884 43.2599H127.389L131.204 43.2599H131.681L131.703 42.7827L131.976 36.8214L131.976 36.8171L133.611 6.72206Z" fill="#FDCA01" stroke="#FDCA01"/>
</svg>
