<svg width="375" height="62" viewBox="0 0 375 62" fill="none" xmlns="http://www.w3.org/2000/svg">
<path d="M42.1136 17.75H32.1591C31.9773 16.4621 31.6061 15.3182 31.0455 14.3182C30.4849 13.303 29.7652 12.4394 28.8864 11.7273C28.0076 11.0151 26.9924 10.4697 25.8409 10.0909C24.7045 9.71212 23.4697 9.52273 22.1364 9.52273C19.7273 9.52273 17.6288 10.1212 15.8409 11.3182C14.053 12.5 12.6667 14.2273 11.6818 16.5C10.697 18.7576 10.2045 21.5 10.2045 24.7273C10.2045 28.0455 10.697 30.8333 11.6818 33.0909C12.6818 35.3485 14.0758 37.053 15.8636 38.2045C17.6515 39.3561 19.7197 39.9318 22.0682 39.9318C23.3864 39.9318 24.6061 39.7576 25.7273 39.4091C26.8636 39.0606 27.8712 38.553 28.75 37.8864C29.6288 37.2045 30.3561 36.3788 30.9318 35.4091C31.5227 34.4394 31.9318 33.3333 32.1591 32.0909L42.1136 32.1364C41.8561 34.2727 41.2121 36.3333 40.1818 38.3182C39.1667 40.2879 37.7955 42.053 36.0682 43.6136C34.3561 45.1591 32.3106 46.3864 29.9318 47.2955C27.5682 48.1894 24.8939 48.6364 21.9091 48.6364C17.7576 48.6364 14.0455 47.697 10.7727 45.8182C7.51515 43.9394 4.93939 41.2197 3.04545 37.6591C1.16667 34.0985 0.227273 29.7879 0.227273 24.7273C0.227273 19.6515 1.18182 15.3333 3.09091 11.7727C5 8.21212 7.59091 5.5 10.8636 3.63636C14.1364 1.75757 17.8182 0.81818 21.9091 0.81818C24.6061 0.81818 27.1061 1.19697 29.4091 1.95454C31.7273 2.71212 33.7803 3.81818 35.5682 5.27272C37.3561 6.71212 38.8106 8.47727 39.9318 10.5682C41.0682 12.6591 41.7955 15.053 42.1136 17.75ZM55.4034 61.0909C54.1761 61.0909 53.0246 60.9924 51.9489 60.7955C50.8883 60.6136 50.0095 60.3788 49.3125 60.0909L51.4943 52.8636C52.6307 53.2121 53.6534 53.4015 54.5625 53.4318C55.4867 53.4621 56.2822 53.25 56.9489 52.7955C57.6307 52.3409 58.1837 51.5682 58.608 50.4773L59.1761 49L46.6534 13.0909H56.8352L64.0625 38.7273H64.4261L71.7216 13.0909H81.9716L68.4034 51.7727C67.7519 53.6515 66.8655 55.2879 65.7443 56.6818C64.6383 58.0909 63.2367 59.1742 61.5398 59.9318C59.8428 60.7045 57.7973 61.0909 55.4034 61.0909ZM87.108 48V1.45454H96.7898V18.9545H97.0852C97.5095 18.0152 98.1231 17.0606 98.9261 16.0909C99.7443 15.1061 100.805 14.2879 102.108 13.6364C103.426 12.9697 105.063 12.6364 107.017 12.6364C109.563 12.6364 111.911 13.303 114.062 14.6364C116.214 15.9545 117.934 17.947 119.222 20.6136C120.509 23.2652 121.153 26.5909 121.153 30.5909C121.153 34.4848 120.525 37.7727 119.267 40.4545C118.025 43.1212 116.328 45.1439 114.176 46.5227C112.04 47.8864 109.646 48.5682 106.994 48.5682C105.116 48.5682 103.517 48.2576 102.199 47.6364C100.896 47.0152 99.8277 46.2348 98.9943 45.2955C98.161 44.3409 97.5246 43.3788 97.0852 42.4091H96.6534V48H87.108ZM96.5852 30.5455C96.5852 32.6212 96.8731 34.4318 97.4489 35.9773C98.0246 37.5227 98.858 38.7273 99.9489 39.5909C101.04 40.4394 102.366 40.8636 103.926 40.8636C105.502 40.8636 106.835 40.4318 107.926 39.5682C109.017 38.6894 109.843 37.4773 110.403 35.9318C110.979 34.3712 111.267 32.5758 111.267 30.5455C111.267 28.5303 110.987 26.7576 110.426 25.2273C109.866 23.697 109.04 22.5 107.949 21.6364C106.858 20.7727 105.517 20.3409 103.926 20.3409C102.35 20.3409 101.017 20.7576 99.9261 21.5909C98.8504 22.4242 98.0246 23.6061 97.4489 25.1364C96.8731 26.6667 96.5852 28.4697 96.5852 30.5455ZM143.523 48.6818C139.932 48.6818 136.841 47.9545 134.25 46.5C131.674 45.0303 129.689 42.9545 128.295 40.2727C126.902 37.5758 126.205 34.3864 126.205 30.7045C126.205 27.1136 126.902 23.9621 128.295 21.25C129.689 18.5379 131.652 16.4242 134.182 14.9091C136.727 13.3939 139.712 12.6364 143.136 12.6364C145.439 12.6364 147.583 13.0076 149.568 13.75C151.568 14.4773 153.311 15.5758 154.795 17.0455C156.295 18.5152 157.462 20.3636 158.295 22.5909C159.129 24.803 159.545 27.3939 159.545 30.3636V33.0227H130.068V27.0227H150.432C150.432 25.6288 150.129 24.3939 149.523 23.3182C148.917 22.2424 148.076 21.4015 147 20.7955C145.939 20.1742 144.705 19.8636 143.295 19.8636C141.826 19.8636 140.523 20.2045 139.386 20.8864C138.265 21.553 137.386 22.4545 136.75 23.5909C136.114 24.7121 135.788 25.9621 135.773 27.3409V33.0455C135.773 34.7727 136.091 36.2652 136.727 37.5227C137.379 38.7803 138.295 39.75 139.477 40.4318C140.659 41.1136 142.061 41.4545 143.682 41.4545C144.758 41.4545 145.742 41.303 146.636 41C147.53 40.697 148.295 40.2424 148.932 39.6364C149.568 39.0303 150.053 38.2879 150.386 37.4091L159.341 38C158.886 40.1515 157.955 42.0303 156.545 43.6364C155.152 45.2273 153.348 46.4697 151.136 47.3636C148.939 48.2424 146.402 48.6818 143.523 48.6818ZM165.864 48V13.0909H175.25V19.1818H175.614C176.25 17.0152 177.318 15.3788 178.818 14.2727C180.318 13.1515 182.045 12.5909 184 12.5909C184.485 12.5909 185.008 12.6212 185.568 12.6818C186.129 12.7424 186.621 12.8258 187.045 12.9318V21.5227C186.591 21.3864 185.962 21.2652 185.159 21.1591C184.356 21.053 183.621 21 182.955 21C181.53 21 180.258 21.3106 179.136 21.9318C178.03 22.5379 177.152 23.3864 176.5 24.4773C175.864 25.5682 175.545 26.8258 175.545 28.25V48H165.864Z" fill="#FFD11A"/>
<path d="M223.097 16.5C222.778 15.3939 222.331 14.4167 221.756 13.5682C221.18 12.7045 220.475 11.9773 219.642 11.3864C218.824 10.7803 217.884 10.3182 216.824 10C215.778 9.68182 214.619 9.52273 213.347 9.52273C210.968 9.52273 208.877 10.1136 207.074 11.2955C205.286 12.4773 203.892 14.197 202.892 16.4545C201.892 18.697 201.392 21.4394 201.392 24.6818C201.392 27.9242 201.884 30.6818 202.869 32.9545C203.854 35.2273 205.248 36.9621 207.051 38.1591C208.854 39.3409 210.983 39.9318 213.438 39.9318C215.665 39.9318 217.566 39.5379 219.142 38.75C220.733 37.947 221.945 36.8182 222.778 35.3636C223.627 33.9091 224.051 32.1894 224.051 30.2045L226.051 30.5H214.051V23.0909H233.528V28.9545C233.528 33.0455 232.665 36.5606 230.938 39.5C229.21 42.4242 226.831 44.6818 223.801 46.2727C220.771 47.8485 217.301 48.6364 213.392 48.6364C209.028 48.6364 205.195 47.6742 201.892 45.75C198.589 43.8106 196.013 41.0606 194.165 37.5C192.331 33.9242 191.415 29.6818 191.415 24.7727C191.415 21 191.96 17.6364 193.051 14.6818C194.157 11.7121 195.703 9.19697 197.688 7.13636C199.672 5.07576 201.983 3.50757 204.619 2.43182C207.256 1.35606 210.112 0.81818 213.188 0.81818C215.824 0.81818 218.278 1.20454 220.551 1.97727C222.824 2.73485 224.839 3.81061 226.597 5.20454C228.369 6.59848 229.816 8.25757 230.938 10.1818C232.059 12.0909 232.778 14.197 233.097 16.5H223.097ZM263.125 33.1364V13.0909H272.807V48H263.511V41.6591H263.148C262.36 43.7045 261.049 45.3485 259.216 46.5909C257.398 47.8333 255.178 48.4545 252.557 48.4545C250.223 48.4545 248.17 47.9242 246.398 46.8636C244.625 45.803 243.239 44.2955 242.239 42.3409C241.254 40.3864 240.754 38.0455 240.739 35.3182V13.0909H250.42V33.5909C250.436 35.6515 250.989 37.2803 252.08 38.4773C253.17 39.6742 254.633 40.2727 256.466 40.2727C257.633 40.2727 258.723 40.0076 259.739 39.4773C260.754 38.9318 261.572 38.1288 262.193 37.0682C262.83 36.0076 263.14 34.697 263.125 33.1364ZM290.506 48.6591C288.278 48.6591 286.294 48.2727 284.551 47.5C282.809 46.7121 281.43 45.553 280.415 44.0227C279.415 42.4773 278.915 40.553 278.915 38.25C278.915 36.3106 279.271 34.6818 279.983 33.3636C280.695 32.0455 281.665 30.9848 282.892 30.1818C284.119 29.3788 285.513 28.7727 287.074 28.3636C288.65 27.9545 290.301 27.6667 292.028 27.5C294.059 27.2879 295.695 27.0909 296.938 26.9091C298.18 26.7121 299.081 26.4242 299.642 26.0455C300.203 25.6667 300.483 25.1061 300.483 24.3636V24.2273C300.483 22.7879 300.028 21.6742 299.119 20.8864C298.225 20.0985 296.953 19.7045 295.301 19.7045C293.559 19.7045 292.172 20.0909 291.142 20.8636C290.112 21.6212 289.43 22.5758 289.097 23.7273L280.142 23C280.597 20.8788 281.491 19.0455 282.824 17.5C284.157 15.9394 285.877 14.7424 287.983 13.9091C290.104 13.0606 292.559 12.6364 295.347 12.6364C297.286 12.6364 299.142 12.8636 300.915 13.3182C302.703 13.7727 304.286 14.4773 305.665 15.4318C307.059 16.3864 308.157 17.6136 308.96 19.1136C309.763 20.5985 310.165 22.3788 310.165 24.4545V48H300.983V43.1591H300.71C300.15 44.25 299.4 45.2121 298.46 46.0455C297.521 46.8636 296.392 47.5076 295.074 47.9773C293.756 48.4318 292.233 48.6591 290.506 48.6591ZM293.278 41.9773C294.703 41.9773 295.96 41.697 297.051 41.1364C298.142 40.5606 298.998 39.7879 299.619 38.8182C300.241 37.8485 300.551 36.75 300.551 35.5227V31.8182C300.248 32.0152 299.831 32.197 299.301 32.3636C298.786 32.5152 298.203 32.6591 297.551 32.7955C296.9 32.9167 296.248 33.0303 295.597 33.1364C294.945 33.2273 294.354 33.3106 293.824 33.3864C292.688 33.553 291.695 33.8182 290.847 34.1818C289.998 34.5455 289.339 35.0379 288.869 35.6591C288.4 36.2652 288.165 37.0227 288.165 37.9318C288.165 39.25 288.642 40.2576 289.597 40.9545C290.566 41.6364 291.794 41.9773 293.278 41.9773ZM317.676 48V13.0909H327.062V19.1818H327.426C328.063 17.0152 329.131 15.3788 330.631 14.2727C332.131 13.1515 333.858 12.5909 335.812 12.5909C336.297 12.5909 336.82 12.6212 337.381 12.6818C337.941 12.7424 338.434 12.8258 338.858 12.9318V21.5227C338.403 21.3864 337.775 21.2652 336.972 21.1591C336.169 21.053 335.434 21 334.767 21C333.343 21 332.07 21.3106 330.949 21.9318C329.843 22.5379 328.964 23.3864 328.312 24.4773C327.676 25.5682 327.358 26.8258 327.358 28.25V48H317.676ZM355.102 48.5682C352.451 48.5682 350.049 47.8864 347.898 46.5227C345.761 45.1439 344.064 43.1212 342.807 40.4545C341.564 37.7727 340.943 34.4848 340.943 30.5909C340.943 26.5909 341.587 23.2652 342.875 20.6136C344.163 17.947 345.875 15.9545 348.011 14.6364C350.163 13.303 352.519 12.6364 355.08 12.6364C357.034 12.6364 358.663 12.9697 359.966 13.6364C361.284 14.2879 362.345 15.1061 363.148 16.0909C363.966 17.0606 364.587 18.0152 365.011 18.9545H365.307V1.45454H374.966V48H365.42V42.4091H365.011C364.557 43.3788 363.913 44.3409 363.08 45.2955C362.261 46.2348 361.193 47.0152 359.875 47.6364C358.572 48.2576 356.981 48.5682 355.102 48.5682ZM358.17 40.8636C359.731 40.8636 361.049 40.4394 362.125 39.5909C363.216 38.7273 364.049 37.5227 364.625 35.9773C365.216 34.4318 365.511 32.6212 365.511 30.5455C365.511 28.4697 365.223 26.6667 364.648 25.1364C364.072 23.6061 363.239 22.4242 362.148 21.5909C361.057 20.7576 359.731 20.3409 358.17 20.3409C356.58 20.3409 355.239 20.7727 354.148 21.6364C353.057 22.5 352.231 23.697 351.67 25.2273C351.11 26.7576 350.83 28.5303 350.83 30.5455C350.83 32.5758 351.11 34.3712 351.67 35.9318C352.246 37.4773 353.072 38.6894 354.148 39.5682C355.239 40.4318 356.58 40.8636 358.17 40.8636Z" fill="white"/>
</svg>
