<svg width="21" height="20" viewBox="0 0 21 20" fill="none" xmlns="http://www.w3.org/2000/svg">
<path opacity="0.4" d="M3.39355 10.0001C3.39355 8.15913 4.91283 6.66675 6.78695 6.66675H13.5737C15.4479 6.66675 16.9671 8.15913 16.9671 10.0001V15.0001C16.9671 16.841 15.4479 18.3334 13.5737 18.3334H6.78695C4.91283 18.3334 3.39355 16.841 3.39355 15.0001V10.0001Z" fill="#28303F"/>
<path fill-rule="evenodd" clip-rule="evenodd" d="M10.1802 11.0417C10.5316 11.0417 10.8165 11.3216 10.8165 11.6667V13.3334C10.8165 13.6786 10.5316 13.9584 10.1802 13.9584C9.82881 13.9584 9.54395 13.6786 9.54395 13.3334V11.6667C9.54395 11.3216 9.82881 11.0417 10.1802 11.0417Z" fill="#28303F"/>
<path fill-rule="evenodd" clip-rule="evenodd" d="M7.42291 5.00008C7.42291 3.50431 8.65732 2.29175 10.18 2.29175C11.7028 2.29175 12.9372 3.50431 12.9372 5.00008V6.66675H12.9668C13.4007 6.66675 13.8185 6.73583 14.2097 6.8636V5.00008C14.2097 2.81395 12.4056 1.04175 10.18 1.04175C7.95453 1.04175 6.15039 2.81395 6.15039 5.00008V6.8636C6.54161 6.73583 6.95937 6.66675 7.39326 6.66675H7.42291V5.00008Z" fill="#28303F"/>
</svg>
