<svg width="14" height="14" viewBox="0 0 14 14" fill="none" xmlns="http://www.w3.org/2000/svg">
<path d="M11.8957 4.04375L11.4991 3.64709L7.82475 7.32142C7.36546 7.78071 6.59302 7.78071 6.13372 7.32142L2.4594 3.66797L2.06274 4.06463L4.79761 6.7995L2.06274 9.53436L2.4594 9.93102L5.19427 7.19616L5.73707 7.73895C6.07109 8.07298 6.50951 8.26087 6.9688 8.26087C7.42809 8.26087 7.8665 8.07298 8.20053 7.73895L8.74333 7.19616L11.4782 9.93102L11.8749 9.53436L9.13999 6.7995L11.8957 4.04375Z" fill="#E8E8FC" fill-opacity="0.3"/>
<path d="M11.1232 10.6409H2.87683C2.39666 10.6409 2 10.2443 2 9.76409V3.87683C2 3.39666 2.39666 3 2.87683 3H11.1232C11.6033 3 12 3.39666 12 3.87683V9.76409C12 10.2443 11.6033 10.6409 11.1232 10.6409V10.6409ZM2.85595 3.56367C2.68894 3.56367 2.56367 3.68894 2.56367 3.85595V9.74321C2.56367 9.91023 2.68894 10.0355 2.85595 10.0355H11.1023C11.2693 10.0355 11.3946 9.91023 11.3946 9.74321V3.85595C11.3946 3.68894 11.2693 3.56367 11.1023 3.56367H2.85595Z" fill="#E8E8FC" fill-opacity="0.3"/>
</svg>
