<svg width="20" height="20" viewBox="0 0 20 20" fill="none" xmlns="http://www.w3.org/2000/svg">
<path d="M14.9343 5.51667C14.8497 5.31304 14.6879 5.15123 14.4843 5.06667C14.3841 5.02397 14.2765 5.00132 14.1676 5H5.83426C5.61325 5 5.40128 5.0878 5.245 5.24408C5.08872 5.40036 5.00093 5.61232 5.00093 5.83333C5.00093 6.05435 5.08872 6.26631 5.245 6.42259C5.40128 6.57887 5.61325 6.66667 5.83426 6.66667H12.1593L5.24259 13.575C5.16449 13.6525 5.10249 13.7446 5.06018 13.8462C5.01788 13.9477 4.99609 14.0567 4.99609 14.1667C4.99609 14.2767 5.01788 14.3856 5.06018 14.4871C5.10249 14.5887 5.16449 14.6809 5.24259 14.7583C5.32006 14.8364 5.41223 14.8984 5.51378 14.9407C5.61533 14.9831 5.72425 15.0048 5.83426 15.0048C5.94427 15.0048 6.05319 14.9831 6.15474 14.9407C6.25629 14.8984 6.34846 14.8364 6.42593 14.7583L13.3343 7.84167V14.1667C13.3343 14.3877 13.4221 14.5996 13.5783 14.7559C13.7346 14.9122 13.9466 15 14.1676 15C14.3886 15 14.6006 14.9122 14.7569 14.7559C14.9131 14.5996 15.0009 14.3877 15.0009 14.1667V5.83333C14.9996 5.72444 14.977 5.61685 14.9343 5.51667Z" fill="white"/>
</svg>
