<svg width="102" height="102" viewBox="0 0 102 102" fill="none" xmlns="http://www.w3.org/2000/svg">
<circle cx="51" cy="51" r="50.5" stroke="white" stroke-linecap="round" stroke-linejoin="round" stroke-dasharray="5 5"/>
<circle cx="51" cy="51" r="44.5" fill="white" fill-opacity="0.1" stroke="black"/>
<path d="M59.5469 46.588C59.5469 46.1834 59.219 45.8555 58.8144 45.8555H35.551C34.3394 45.8555 33.3535 46.8413 33.3535 48.053V61.3016C33.3535 62.5132 34.3394 63.4991 35.551 63.4991H66.449C67.6607 63.4991 68.6465 62.5132 68.6465 61.3016V48.053C68.6465 46.8413 67.6607 45.8555 66.449 45.8555H62.2327C61.8281 45.8555 61.5002 46.1834 61.5002 46.588C61.5002 46.9925 61.8281 47.3205 62.2327 47.3205H66.449C66.853 47.3205 67.1815 47.6491 67.1815 48.053V61.3016C67.1815 61.7054 66.853 62.0341 66.449 62.0341H35.551C35.1471 62.0341 34.8185 61.7054 34.8185 61.3016V48.053C34.8185 47.6491 35.1471 47.3205 35.551 47.3205H58.8144C59.219 47.3205 59.5469 46.9925 59.5469 46.588Z" fill="white"/>
<path d="M72.6791 66.4643C72.9283 65.7599 73.0582 65.0134 73.0582 64.2601V48.0366C73.0582 44.4014 70.1008 41.444 66.4656 41.444H64.9694V39.2289C64.9694 38.8251 65.298 38.4964 65.7019 38.4964H68.042C68.6209 38.4964 69.1875 38.2619 69.5963 37.853L71.5676 35.8809C72.0057 36.1406 72.5163 36.2903 73.0614 36.2903C74.6818 36.2903 76 34.972 76 33.3517C76 31.7313 74.6818 30.413 73.0614 30.413C71.441 30.413 70.1227 31.7314 70.1227 33.3517C70.1227 33.8966 70.2723 34.407 70.5317 34.8448L68.5601 36.8172C68.4239 36.9534 68.2351 37.0314 68.0419 37.0314H65.7017C64.4901 37.0314 63.5042 38.0172 63.5042 39.2289V41.444H57.6159V40.5767C57.6159 40.3813 57.6919 40.1975 57.83 40.0594L61.3849 36.5044C61.7992 36.0886 62.0274 35.537 62.0274 34.951V33.9919C63.2946 33.6657 64.2337 32.5133 64.2337 31.1457C64.2337 29.5252 62.9155 28.207 61.2951 28.207C59.6747 28.207 58.3564 29.5253 58.3564 31.1457C58.3564 32.5132 59.2953 33.6655 60.5624 33.9918V34.9512C60.5624 35.1468 60.486 35.3311 60.3481 35.4695L56.794 39.0236C56.3792 39.4385 56.1507 39.99 56.1507 40.5768V41.4441H51.7323V36.198C52.9994 35.8717 53.9384 34.7193 53.9384 33.3518C53.9384 31.7314 52.6202 30.4131 50.9998 30.4131C49.3794 30.4131 48.0611 31.7315 48.0611 33.3518C48.0611 34.7193 49.0001 35.8717 50.2672 36.198V41.4441H45.8488V40.5768C45.8488 39.99 45.6203 39.4385 45.2055 39.0236L41.6523 35.4704C41.5135 35.3312 41.4371 35.1468 41.4371 34.9512V33.9918C42.7042 33.6654 43.6431 32.5131 43.6431 31.1457C43.6431 29.5252 42.3248 28.207 40.7044 28.207C39.084 28.207 37.7658 29.5253 37.7658 31.1457C37.7658 32.5133 38.7049 33.6657 39.9721 33.9919V34.9512C39.9721 35.5372 40.2003 36.0888 40.6155 36.5054L44.1696 40.0594C44.3077 40.1976 44.3838 40.3813 44.3838 40.5767V41.444H38.4954V39.2289C38.4954 38.0172 37.5095 37.0314 36.2979 37.0314H33.9579C33.7647 37.0314 33.5759 36.9534 33.4398 36.8173L31.4682 34.8449C31.7277 34.407 31.8772 33.8967 31.8772 33.3518C31.8772 31.7314 30.5589 30.4131 28.9385 30.4131C27.3181 30.4131 26 31.7314 26 33.3518C26 34.9722 27.3182 36.2904 28.9386 36.2904C29.4838 36.2904 29.9944 36.1407 30.4323 35.881L32.4038 37.8532C32.8126 38.262 33.3791 38.4965 33.9579 38.4965H36.2981C36.702 38.4965 37.0306 38.8251 37.0306 39.229V41.4441H35.5344C31.8992 41.4441 28.9418 44.4015 28.9418 48.0367V53.7453C28.9418 54.1499 29.2697 54.4778 29.6743 54.4778C30.079 54.4778 30.4069 54.1499 30.4069 53.7453V48.0367C30.4069 45.2094 32.7071 42.9091 35.5344 42.9091H66.4656C69.2929 42.9091 71.5931 45.2094 71.5931 48.0367V64.2602C71.5931 65.0183 71.4244 65.7671 71.1042 66.447H59.1758C58.7931 66.447 58.4184 66.5532 58.09 66.7555C57.7633 66.9584 57.5007 67.2465 57.3311 67.5872C57.2291 67.7912 57.0239 67.9179 56.7956 67.9179H45.2045C45.0932 67.9179 44.9843 67.8869 44.8902 67.8289C44.7948 67.77 44.7186 67.6869 44.6689 67.5873C44.3172 66.8839 43.6104 66.447 42.8242 66.447H30.8959C30.5757 65.7676 30.4069 65.0191 30.4069 64.2602V57.1637C30.4069 56.7591 30.079 56.4312 29.6743 56.4312C29.2697 56.4312 28.9418 56.7591 28.9418 57.1637V64.2602C28.9418 65.0138 29.0716 65.76 29.3205 66.4639C28.4725 66.5444 27.6858 66.9132 27.0759 67.5229C26.3604 68.2384 25.9788 69.1895 26.0012 70.2001C26.0433 72.182 27.7172 73.7944 29.7329 73.7944H49.5174C49.922 73.7944 50.2499 73.4664 50.2499 73.0619C50.2499 72.6574 49.922 72.3294 49.5174 72.3294H29.7329C28.5082 72.3294 27.4912 71.3602 27.4659 70.1684C27.4524 69.5606 27.6818 68.989 28.1119 68.5588C28.529 68.1417 29.0839 67.9119 29.6743 67.9119H42.8243C43.052 67.9119 43.2568 68.0386 43.3582 68.2413C43.529 68.5843 43.7925 68.8728 44.121 69.0756C44.4471 69.2765 44.8219 69.3828 45.2046 69.3828H56.7957C57.5825 69.3828 58.2898 68.9458 58.6421 68.2411C58.6912 68.1426 58.7675 68.0592 58.8607 68.0013C58.9557 67.9428 59.0646 67.9118 59.1759 67.9118H72.3258C73.544 67.9118 74.5351 68.9024 74.5351 70.1201C74.5351 70.7104 74.3053 71.2653 73.8883 71.6824C73.4712 72.0996 72.9162 72.3293 72.3258 72.3293H52.9358C52.5312 72.3293 52.2033 72.6573 52.2033 73.0618C52.2033 73.4663 52.5312 73.7943 52.9358 73.7943H72.3256C73.3074 73.7943 74.2302 73.4122 74.924 72.7183C75.6178 72.0245 75.9999 71.1017 75.9999 70.1201C75.9999 68.214 74.5399 66.6427 72.6791 66.4643ZM73.0615 31.8782C73.874 31.8782 74.5351 32.5393 74.5351 33.3518C74.5351 34.1644 73.874 34.8254 73.0615 34.8254C72.2489 34.8254 71.5878 34.1643 71.5878 33.3518C71.5878 32.5392 72.2488 31.8782 73.0615 31.8782ZM59.8217 31.1457C59.8217 30.3331 60.4828 29.672 61.2954 29.672C62.1079 29.672 62.769 30.3332 62.769 31.1457C62.769 31.9582 62.1079 32.6193 61.2954 32.6193C60.4828 32.6193 59.8217 31.9582 59.8217 31.1457ZM49.5264 33.3518C49.5264 32.5392 50.1876 31.8782 51 31.8782C51.8125 31.8782 52.4737 32.5393 52.4737 33.3518C52.4737 34.1644 51.8125 34.8254 51 34.8254C50.1876 34.8254 49.5264 34.1644 49.5264 33.3518ZM39.2311 31.1457C39.2311 30.3331 39.8922 29.672 40.7047 29.672C41.5173 29.672 42.1784 30.3332 42.1784 31.1457C42.1784 31.9582 41.5173 32.6193 40.7047 32.6193C39.8921 32.6193 39.2311 31.9582 39.2311 31.1457ZM27.465 33.3518C27.465 32.5392 28.1261 31.8782 28.9386 31.8782C29.7512 31.8782 30.4123 32.5393 30.4123 33.3518C30.4123 34.1644 29.7512 34.8254 28.9386 34.8254C28.1261 34.8254 27.465 34.1644 27.465 33.3518Z" fill="white"/>
<path d="M44.168 52.2403V53.4123C44.168 53.8169 44.4958 54.1448 44.9005 54.1448C45.3051 54.1448 45.633 53.8169 45.633 53.4123V52.2403C45.633 51.8358 45.3051 51.5078 44.9005 51.5078C44.4958 51.5078 44.168 51.8358 44.168 52.2403Z" fill="white"/>
<path d="M56.3672 52.2403V53.4123C56.3672 53.8169 56.6951 54.1448 57.0997 54.1448C57.5043 54.1448 57.8322 53.8169 57.8322 53.4123V52.2403C57.8322 51.8358 57.5043 51.5078 57.0997 51.5078C56.6951 51.5078 56.3672 51.8358 56.3672 52.2403Z" fill="white"/>
<path d="M52.0565 52.8998C51.7859 53.2102 51.4112 53.3811 51.0009 53.3811C50.5963 53.3811 50.2115 53.2057 49.9449 52.8998C49.6792 52.5947 49.2164 52.563 48.9115 52.8288C48.6065 53.0945 48.5746 53.5573 48.8404 53.8623C49.3852 54.4876 50.1727 54.8461 51.0008 54.8461C51.8286 54.8461 52.616 54.4875 53.1608 53.8623C53.4267 53.5573 53.3948 53.0946 53.0898 52.8288C52.7848 52.5629 52.3221 52.5947 52.0565 52.8998Z" fill="white"/>
</svg>
