<svg width="56" height="56" viewBox="0 0 56 56" fill="none" xmlns="http://www.w3.org/2000/svg">
<circle cx="28" cy="28" r="28" fill="#0ACFFE"/>
<path d="M27.7502 26.5C25.6822 26.5 24.0002 24.818 24.0002 22.75C24.0002 20.682 25.6822 19 27.7502 19C29.8182 19 31.5002 20.682 31.5002 22.75C31.5002 24.818 29.8182 26.5 27.7502 26.5ZM27.7502 20.5C26.5092 20.5 25.5002 21.509 25.5002 22.75C25.5002 23.991 26.5092 25 27.7502 25C28.9912 25 30.0002 23.991 30.0002 22.75C30.0002 21.509 28.9912 20.5 27.7502 20.5Z" fill="white"/>
<path d="M27.7472 33.556C27.4082 33.556 27.0872 33.444 26.8192 33.233C26.7282 33.162 26.6452 33.079 26.5722 32.986C24.4912 30.354 21.0002 25.524 21.0002 22.75C21.0002 19.028 24.0282 16 27.7502 16C31.4722 16 34.5002 19.028 34.5002 22.75C34.5002 25.531 31.0082 30.357 28.9262 32.986C28.6782 33.3 28.3232 33.499 27.9242 33.546C27.8662 33.553 27.8062 33.556 27.7472 33.556ZM27.7502 17.5C24.8552 17.5 22.5002 19.855 22.5002 22.75C22.5002 24.717 25.2122 28.847 27.7492 32.056C30.2882 28.85 33.0002 24.722 33.0002 22.75C33.0002 19.855 30.6452 17.5 27.7502 17.5ZM27.0002 40C26.8002 40 26.6112 39.922 26.4702 39.78C26.1782 39.488 26.1782 39.012 26.4702 38.719L26.7172 38.472C21.2612 38.226 17.2502 36.05 17.2502 33.246C17.2502 31.693 18.4742 30.296 20.6972 29.313C20.7932 29.271 20.8952 29.25 21.0002 29.25C21.2972 29.25 21.5662 29.425 21.6862 29.697C21.8532 30.075 21.6812 30.519 21.3032 30.686C19.7042 31.393 18.7502 32.35 18.7502 33.247C18.7502 35.076 22.3472 36.723 26.6552 36.965L26.4702 36.78C26.1782 36.488 26.1782 36.012 26.4702 35.719C26.6122 35.577 26.8002 35.499 27.0002 35.499C27.2002 35.499 27.3892 35.577 27.5302 35.719L29.0132 37.202C29.1582 37.33 29.2502 37.534 29.2502 37.746C29.2502 37.757 29.2502 37.768 29.2492 37.779C29.2452 37.862 29.2282 37.938 29.2012 38.011C29.1992 38.016 29.1902 38.041 29.1882 38.046C29.1572 38.115 29.1192 38.174 29.0742 38.229C29.0612 38.248 29.0462 38.266 29.0322 38.28L27.5322 39.78C27.3892 39.922 27.2002 40 27.0002 40ZM32.2502 37.993C31.9022 37.993 31.6022 37.757 31.5212 37.418C31.4742 37.223 31.5062 37.022 31.6112 36.851C31.7152 36.68 31.8812 36.56 32.0762 36.513C34.8722 35.841 36.7512 34.529 36.7512 33.249C36.7512 32.354 35.8002 31.398 34.2062 30.692C33.8282 30.524 33.6572 30.08 33.8252 29.702C33.9452 29.431 34.2142 29.256 34.5102 29.256C34.6152 29.256 34.7182 29.278 34.8142 29.32C37.0312 30.303 38.2512 31.698 38.2512 33.249C38.2512 35.298 36.0192 37.108 32.4262 37.971C32.3672 37.986 32.3082 37.993 32.2502 37.993Z" fill="white"/>
</svg>
