<svg width="102" height="100" viewBox="0 0 102 100" fill="none" xmlns="http://www.w3.org/2000/svg">
<path d="M101.509 43.2503C101.694 44.5346 101.829 45.8348 101.909 47.1489C101.635 47.1643 101.424 47.3986 101.438 47.6735C101.479 48.4798 101.5 49.2912 101.5 50.1074C101.5 50.9236 101.479 51.735 101.438 52.5413C101.424 52.8162 101.635 53.0506 101.909 53.066C101.829 54.3801 101.694 55.6803 101.509 56.9646C101.237 56.9238 100.983 57.1103 100.941 57.3823C100.69 58.9974 100.357 60.5864 99.9459 62.1454C99.8758 62.4116 100.034 62.6842 100.299 62.7557C99.9517 64.0206 99.5532 65.2654 99.1059 66.4882C98.8482 66.3923 98.5612 66.5227 98.4639 66.7802C97.8887 68.3031 97.2369 69.7907 96.513 71.2385C96.3898 71.4847 96.4889 71.7839 96.7342 71.9081C96.137 73.0722 95.4935 74.2102 94.806 75.3198C94.573 75.1738 94.2655 75.2433 94.1181 75.4758C93.2489 76.8473 92.3112 78.1741 91.3097 79.4519C91.1398 79.6686 91.1772 79.9816 91.3928 80.1523C90.5769 81.1719 89.7206 82.1597 88.826 83.1135C88.6264 82.9243 88.3112 82.9319 88.1208 83.1308C87.0003 84.3019 85.8209 85.42 84.5871 86.4806C84.3783 86.66 84.354 86.9744 84.5323 87.1838C83.5352 88.024 82.5039 88.8274 81.4406 89.5917C81.2812 89.3676 80.9705 89.3142 80.7453 89.4727C79.4221 90.4045 78.05 91.2757 76.6336 92.0822C76.3943 92.2184 76.3103 92.5223 76.4453 92.7619C75.3075 93.3951 74.1421 93.9872 72.9511 94.5359C72.8372 94.2856 72.5423 94.1741 72.2911 94.2869C70.8175 94.9487 69.3052 95.5439 67.7584 96.0685C67.4976 96.157 67.3576 96.4395 67.4447 96.7003C66.2098 97.106 64.9536 97.4672 63.6781 97.782C63.6135 97.5147 63.3449 97.3495 63.077 97.4129C61.5086 97.7841 59.9113 98.0847 58.2891 98.3109C58.0164 98.3489 57.8259 98.6002 57.8626 98.8728C56.5761 99.0397 55.2744 99.1604 53.9594 99.233C53.9455 98.9583 53.7122 98.7461 53.4371 98.7587C52.6296 98.7957 51.8171 98.8145 51 98.8145C50.1829 98.8145 49.3704 98.7957 48.5629 98.7587C48.2878 98.7461 48.0545 98.9583 48.0406 99.233C46.7256 99.1604 45.4239 99.0397 44.1374 98.8728C44.1741 98.6002 43.9836 98.3489 43.7109 98.3109C42.0887 98.0847 40.4914 97.7841 38.9231 97.4129C38.6551 97.3495 38.3865 97.5147 38.3219 97.782C37.0464 97.4672 35.7902 97.106 34.5553 96.7004C34.6424 96.4395 34.5024 96.157 34.2416 96.0685C32.6948 95.5439 31.1825 94.9487 29.7089 94.2869C29.4577 94.1741 29.1628 94.2856 29.0489 94.5359C27.858 93.9872 26.6925 93.3951 25.5548 92.7619C25.6897 92.5223 25.6057 92.2184 25.3664 92.0822C23.95 91.2757 22.5779 90.4045 21.2547 89.4727C21.0296 89.3142 20.7188 89.3676 20.5594 89.5917C19.4962 88.8274 18.4648 88.024 17.4677 87.1838C17.646 86.9744 17.6217 86.66 17.4129 86.4806C16.1791 85.42 14.9997 84.302 13.8792 83.1308C13.6888 82.9319 13.3737 82.9243 13.174 83.1135C12.2794 82.1597 11.4231 81.1719 10.6072 80.1523C10.8228 79.9816 10.8602 79.6686 10.6903 79.4519C9.68881 78.1741 8.75113 76.8473 7.88187 75.4759C7.73449 75.2433 7.42702 75.1738 7.19404 75.3198C6.50649 74.2102 5.86297 73.0722 5.26577 71.9081C5.51106 71.7839 5.61016 71.4847 5.48705 71.2385C4.76311 69.7907 4.1113 68.3031 3.53606 66.7802C3.4388 66.5227 3.1518 66.3923 2.89409 66.4882C2.44684 65.2654 2.04825 64.0206 1.70056 62.7557C1.96605 62.6842 2.12423 62.4116 2.05407 62.1454C1.64314 60.5864 1.31018 58.9974 1.05943 57.3823C1.0172 57.1103 0.763133 56.9238 0.491239 56.9646C0.305643 55.6803 0.17143 54.3801 0.0906638 53.066C0.36518 53.0506 0.575965 52.8162 0.56194 52.5413C0.52081 51.7351 0.5 50.9236 0.5 50.1074C0.5 49.2912 0.520809 48.4798 0.56194 47.6735C0.575965 47.3986 0.36518 47.1643 0.0906633 47.1489C0.17143 45.8348 0.305643 44.5346 0.491239 43.2503C0.763133 43.291 1.0172 43.1045 1.05943 42.8325C1.31018 41.2175 1.64314 39.6284 2.05407 38.0694C2.12423 37.8032 1.96605 37.5306 1.70056 37.4592C2.04825 36.1943 2.44684 34.9494 2.89409 33.7267C3.1518 33.8225 3.4388 33.6922 3.53606 33.4347C4.1113 31.9117 4.76311 30.4242 5.48704 28.9764C5.61016 28.7302 5.51106 28.4309 5.26576 28.3067C5.86296 27.1427 6.50649 26.0047 7.19403 24.895C7.42702 25.041 7.73449 24.9715 7.88186 24.739C8.75113 23.3676 9.6888 22.0407 10.6903 20.7629C10.8602 20.5463 10.8228 20.2332 10.6072 20.0625C11.4231 19.043 12.2794 18.0552 13.174 17.1014C13.3736 17.2905 13.6888 17.283 13.8792 17.084C14.9997 15.9129 16.1791 14.7948 17.4129 13.7343C17.6217 13.5548 17.646 13.2405 17.4677 13.0311C18.4648 12.1908 19.4961 11.3875 20.5594 10.6231C20.7188 10.8472 21.0296 10.9006 21.2547 10.7421C22.5779 9.81033 23.95 8.93912 25.3664 8.13269C25.6057 7.99646 25.6897 7.69256 25.5547 7.45291C26.6925 6.8197 27.8579 6.22767 29.0489 5.6789C29.1628 5.92925 29.4577 6.04077 29.7089 5.92797C31.1825 5.26618 32.6948 4.67096 34.2416 4.14632C34.5024 4.05788 34.6424 3.77537 34.5553 3.51449C35.7902 3.10886 37.0464 2.74765 38.3219 2.43283C38.3865 2.70018 38.6551 2.86531 38.923 2.8019C40.4914 2.43069 42.0887 2.13015 43.7109 1.90397C43.9836 1.86594 44.1741 1.61465 44.1374 1.34206C45.4239 1.17511 46.7256 1.05445 48.0406 0.981852C48.0545 1.25657 48.2878 1.46871 48.5629 1.45611C49.3704 1.4191 50.1829 1.40039 51 1.40039C51.8171 1.40039 52.6296 1.4191 53.4371 1.4561C53.7122 1.46871 53.9455 1.25657 53.9594 0.981852C55.2744 1.05445 56.5761 1.17511 57.8626 1.34206C57.8259 1.61465 58.0164 1.86594 58.2891 1.90397C59.9113 2.13015 61.5086 2.43069 63.0769 2.8019C63.3449 2.86531 63.6135 2.70017 63.6781 2.43283C64.9536 2.74765 66.2098 3.10886 67.4447 3.51449C67.3576 3.77537 67.4976 4.05787 67.7584 4.14632C69.3052 4.67096 70.8175 5.26618 72.2911 5.92797C72.5423 6.04077 72.8372 5.92925 72.9511 5.67889C74.142 6.22767 75.3075 6.8197 76.4453 7.4529C76.3103 7.69255 76.3943 7.99646 76.6336 8.13268C78.05 8.93911 79.4221 9.81033 80.7453 10.7421C80.9704 10.9006 81.2812 10.8472 81.4406 10.6231C82.5038 11.3875 83.5351 12.1908 84.5323 13.031C84.354 13.2405 84.3783 13.5548 84.5871 13.7343C85.8209 14.7948 87.0003 15.9129 88.1208 17.084C88.3112 17.283 88.6264 17.2905 88.826 17.1014C89.7206 18.0552 90.5769 19.043 91.3928 20.0625C91.1772 20.2332 91.1398 20.5462 91.3097 20.7629C92.3112 22.0407 93.2489 23.3675 94.1181 24.739C94.2655 24.9715 94.573 25.041 94.806 24.895C95.4935 26.0047 96.137 27.1427 96.7342 28.3067C96.4889 28.4309 96.3898 28.7302 96.513 28.9764C97.2369 30.4242 97.8887 31.9117 98.4639 33.4347C98.5612 33.6922 98.8482 33.8225 99.1059 33.7267C99.5532 34.9494 99.9518 36.1943 100.299 37.4592C100.034 37.5306 99.8758 37.8032 99.9459 38.0694C100.357 39.6284 100.69 41.2175 100.941 42.8325C100.983 43.1045 101.237 43.291 101.509 43.2503Z" stroke="white" stroke-linecap="round" stroke-linejoin="round" stroke-dasharray="5 5"/>
<ellipse cx="51" cy="50.1074" rx="45" ry="43.418" fill="white" fill-opacity="0.1"/>
<path d="M32.3932 47.5431C30.4636 48.4134 30.1166 50.9008 31.6828 52.2343C32.6722 53.0764 34.0845 53.189 35.1962 52.5152C35.4221 52.3787 35.7336 52.3948 35.971 52.5552L36.3885 52.8376C36.2059 53.9148 36.2678 55.1857 36.757 56.2111L35.971 56.7419C35.7339 56.9025 35.4216 56.918 35.1944 56.7811C34.0888 56.1128 32.6829 56.2217 31.6956 57.0521C30.1277 58.3724 30.4433 60.8744 32.3933 61.7545C32.5809 63.8047 34.8893 64.9641 36.7191 64.0031C37.877 63.3936 38.4697 62.1517 38.194 60.9126C38.1383 60.6614 38.2605 60.3849 38.4987 60.2243L39.2395 59.7236C39.2953 60.8451 40.2584 61.741 41.4343 61.741H44.3868C45.5627 61.741 46.5257 60.8451 46.5816 59.7238L47.323 60.2246C47.5606 60.3847 47.6828 60.6613 47.627 60.9123C47.2284 62.704 48.6506 64.3413 50.4916 64.3413C52.0626 64.3413 53.2975 63.1898 53.4282 61.7543C55.375 60.8753 55.6963 58.3731 54.1253 57.052C53.1395 56.2215 51.7335 56.1126 50.6271 56.7807C50.3996 56.9177 50.087 56.902 49.8494 56.7416L49.0525 56.203C49.5403 55.1926 49.6237 53.9561 49.4302 52.839L49.8489 52.5558C50.0873 52.395 50.399 52.3788 50.6238 52.5146C51.737 53.1895 53.1495 53.0765 54.1381 52.2341C55.694 50.9093 55.3695 48.4181 53.4281 47.5427C53.2384 45.483 50.9163 44.3279 49.0865 45.3025C47.9404 45.9141 47.3534 47.1517 47.626 48.3822C47.6821 48.6351 47.5602 48.9124 47.3222 49.073L47.2736 49.1059C44.7818 47.019 41.0016 47.0588 38.5415 49.1018L38.4983 49.0725C38.2609 48.9124 38.1392 48.635 38.1952 48.3822C38.4677 47.152 37.8812 45.9144 36.7351 45.3022C34.9089 44.33 32.5816 45.4813 32.3932 47.5431V47.5431ZM37.6586 59.0662C36.9331 59.5555 36.5809 60.3965 36.7614 61.2092C36.8998 61.8311 36.6007 62.4553 36.0179 62.762C34.984 63.3048 33.716 62.4911 33.8568 61.3408C33.9004 60.9846 33.6606 60.6534 33.299 60.5703C32.1258 60.3006 31.7651 58.8696 32.6584 58.1174C33.1553 57.6994 33.8617 57.644 34.417 57.9794C35.1482 58.4206 36.0884 58.3892 36.8115 57.8997L37.5828 57.3788C37.9564 57.761 38.3701 58.0652 38.7597 58.3222L37.6586 59.0662ZM51.4039 57.9793C51.9594 57.644 52.6659 57.6994 53.1623 58.1174C54.0521 58.8657 53.6995 60.2997 52.5216 60.5703C52.1596 60.6535 51.9197 60.9853 51.964 61.3419C52.106 62.4862 50.8409 63.3064 49.8034 62.7624C49.2199 62.4553 48.9209 61.8311 49.0594 61.209C49.2398 60.3966 48.8876 59.5556 48.1626 59.0667L47.0606 58.3223C47.431 58.0783 47.8485 57.7705 48.2303 57.3736L49.0091 57.8999C49.7333 58.3886 50.673 58.4199 51.4039 57.9793V57.9793ZM49.0585 48.0869C48.9218 47.4696 49.2179 46.8478 49.7949 46.54C50.8246 45.9915 52.1045 46.7959 51.9646 47.9592C51.9218 48.3154 52.1623 48.6461 52.524 48.7285C53.6947 48.9948 54.0508 50.4234 53.1684 51.1747C52.6707 51.5987 51.9614 51.6565 51.4022 51.3175C50.6674 50.8733 49.7231 50.9113 49.0007 51.4035C48.8054 50.957 48.5591 50.5384 48.2693 50.1532C48.9208 49.6559 49.2297 48.859 49.0585 48.0869V48.0869ZM48.0609 53.9395C48.0609 55.539 47.4305 56.3949 46.0885 57.2496C45.4816 57.6393 45.1192 58.2968 45.1192 59.0084V59.6209C45.1192 60.0106 44.7906 60.3276 44.3867 60.3276H41.4342C41.0302 60.3276 40.7017 60.0106 40.7017 59.6209V59.0084C40.7017 58.299 40.3298 57.6358 39.7068 57.2342C38.3695 56.3727 37.7598 55.5993 37.7598 53.9395C37.7598 50.7114 40.4137 48.9697 42.9108 48.9697C45.4425 48.9697 48.0609 50.8287 48.0609 53.9395V53.9395ZM36.7623 48.0868C36.5917 48.8562 36.8975 49.6503 37.5435 50.1473C37.2504 50.5354 37.0045 50.9539 36.8121 51.3979C36.1446 50.9295 35.1781 50.8582 34.4178 51.3178C33.8599 51.6559 33.1504 51.5984 32.6522 51.1743C31.7669 50.4206 32.1319 48.9935 33.2975 48.7284C33.6597 48.6461 33.9005 48.3146 33.857 47.9579C33.7172 46.8099 34.9859 45.9855 36.026 46.5394C36.603 46.8478 36.899 47.4696 36.7623 48.0868V48.0868Z" fill="white"/>
<path d="M40.0271 54.9214C40.1904 55.2931 40.6174 55.4488 40.9842 55.3031C41.3472 55.1631 41.539 54.7447 41.3797 54.3805C41.2133 53.9781 40.6844 53.8117 40.2976 54.0629C40.0274 54.2302 39.8886 54.5792 40.0271 54.9214Z" fill="white"/>
<path d="M44.4392 54.9209C44.6742 55.4571 45.4127 55.4984 45.7245 55.0424C45.9597 54.6978 45.8405 54.2642 45.5223 54.0624C45.1705 53.8391 44.7182 53.9474 44.5066 54.2575C44.3751 54.4502 44.3414 54.6923 44.4392 54.9209V54.9209Z" fill="white"/>
<path d="M70.8666 25.9863H64.9606C62.9411 25.9863 61.2981 27.5715 61.2981 29.5201V36.5853C61.2981 37.1993 61.4649 37.8055 61.7807 38.3385L63.4925 41.2289C63.9798 42.0515 64.7857 42.6408 65.7105 42.8847V60.7615C65.7105 61.9306 64.7248 62.8818 63.513 62.8818H62.6375C62.3357 62.056 61.521 61.4626 60.5653 61.4626H58.3502V32.3472C58.3502 28.8398 55.3928 25.9864 51.7576 25.9864H34.0633C30.4281 25.9864 27.4707 28.8398 27.4707 32.3472V38.0107C27.4707 38.4011 27.7987 38.7174 28.2032 38.7174C28.6078 38.7174 28.9357 38.4011 28.9357 38.0107V33.076H56.8853V67.1389H28.9357V41.3089C28.9357 40.9185 28.6078 40.6021 28.2032 40.6021C27.7987 40.6021 27.4707 40.9185 27.4707 41.3089V67.8678C27.4707 71.3752 30.4281 74.2286 34.0633 74.2286H45.5011C45.9057 74.2286 46.2336 73.9123 46.2336 73.5218C46.2336 73.1314 45.9057 72.8151 45.5011 72.8151H34.0633C31.4767 72.8151 29.3327 70.9574 28.9859 68.5525H56.835C56.4883 70.9575 54.3442 72.8151 51.7576 72.8151H48.9194C48.5149 72.8151 48.1869 73.1314 48.1869 73.5218C48.1869 73.9123 48.5149 74.2286 48.9194 74.2286H51.7576C55.1531 74.2286 57.9566 71.7387 58.3115 68.552H60.5653C61.5221 68.552 62.3375 67.9588 62.6385 67.1337H63.5246C67.1598 67.1337 70.1172 64.2803 70.1172 60.7729V51.1441C70.1172 50.7537 69.7892 50.4373 69.3847 50.4373C68.9802 50.4373 68.6522 50.7537 68.6522 51.1441V60.7729C68.6522 63.5008 66.352 65.7202 63.5246 65.7202H62.7628V64.2954H63.5129C65.5325 64.2954 67.1755 62.7102 67.1755 60.7616V43.0094H68.6522V47.8458C68.6522 48.2362 68.9802 48.5526 69.3847 48.5526C69.7892 48.5526 70.1172 48.2362 70.1172 47.8458V42.8845C71.0417 42.6404 71.8475 42.0513 72.3346 41.2289L74.0464 38.3385C74.362 37.8055 74.529 37.1992 74.529 36.5853V29.5201C74.5291 27.5715 72.8862 25.9863 70.8666 25.9863V25.9863ZM34.0633 27.3999H51.7577C54.3443 27.3999 56.4883 29.2577 56.8351 31.6625H28.986C29.3327 29.2577 31.4768 27.3999 34.0633 27.3999V27.3999ZM61.2979 66.4317C61.2979 66.8214 60.9694 67.1384 60.5654 67.1384H58.3503V62.8762H60.5654C60.9694 62.8762 61.2979 63.1959 61.2979 63.5886V66.4317ZM73.0641 36.5853C73.0641 36.9537 72.964 37.3175 72.7746 37.6373L71.0628 40.5277C70.6725 41.1867 69.9415 41.596 69.1549 41.596H66.6725C65.8858 41.596 65.1548 41.1867 64.7645 40.5277L63.0527 37.6373C62.8633 37.3174 62.7632 36.9537 62.7632 36.5853V29.5201C62.7632 28.351 63.749 27.3998 64.9607 27.3998H70.8667C72.0785 27.3998 73.0642 28.351 73.0642 29.5201V36.5853H73.0641Z" fill="white"/>
<path d="M70.8537 30.2433C70.4492 30.2433 70.1212 30.5596 70.1212 30.95V33.2026C70.1212 33.3915 70.045 33.5689 69.9067 33.7023L68.6448 34.9199V29.531C68.6448 29.1406 68.3168 28.8242 67.9122 28.8242C67.5077 28.8242 67.1797 29.1406 67.1797 29.531V36.3389L65.9178 35.1213C65.7795 34.9879 65.7033 34.8103 65.7033 34.6216V32.369C65.7033 31.9786 65.3753 31.6623 64.9708 31.6623C64.5662 31.6623 64.2383 31.9786 64.2383 32.369V34.6217C64.2383 35.1881 64.4669 35.7206 64.8819 36.121L67.1797 38.338V39.4643C67.1797 39.8547 67.5077 40.171 67.9122 40.171C68.3168 40.171 68.6448 39.8547 68.6448 39.4643V36.9189L70.9426 34.7019C71.3577 34.3015 71.5862 33.7691 71.5862 33.2026V30.95C71.5862 30.5596 71.2583 30.2433 70.8537 30.2433V30.2433Z" fill="white"/>
<path d="M37.4631 37.7476L37.4639 36.6285C37.4642 36.2381 37.1365 35.9214 36.7319 35.9211C36.3279 35.9209 35.9992 36.2366 35.9989 36.6273L35.998 37.7465C35.9978 38.1369 36.3255 38.4535 36.7301 38.4538C37.1398 38.4538 37.4629 38.1331 37.4631 37.7476V37.7476Z" fill="white"/>
<path d="M49.8283 37.7592L49.8292 36.6399C49.8295 36.2495 49.5018 35.9329 49.0973 35.9326C48.6933 35.9323 48.3646 36.2479 48.3642 36.6388L48.3633 37.758C48.363 38.1484 48.6907 38.4651 49.0952 38.4653C49.505 38.4653 49.828 38.1447 49.8283 37.7592Z" fill="white"/>
<path d="M44.5427 38.9579C44.9525 38.9579 45.2755 38.6373 45.2758 38.2518C45.276 37.8614 44.9484 37.5448 44.5438 37.5444L41.2839 37.5417C40.8741 37.5417 40.5511 37.8623 40.5508 38.2478C40.5505 38.6383 40.8782 38.9549 41.2827 38.9553L44.5427 38.9579Z" fill="white"/>
</svg>
