<svg width="56" height="56" viewBox="0 0 56 56" fill="none" xmlns="http://www.w3.org/2000/svg">
<circle cx="28" cy="28" r="28" fill="#0ACFFE"/>
<path d="M34.93 22.4694H36.43V22.9694C36.43 23.2454 36.654 23.4694 36.93 23.4694C37.207 23.4694 37.43 23.2454 37.43 22.9684V21.9684C37.43 21.6924 37.206 21.4684 36.93 21.4684H35.624L36.404 19.1264C36.491 18.8644 36.35 18.5814 36.088 18.4944C35.825 18.4074 35.543 18.5484 35.456 18.8104L34.456 21.8104C34.404 21.9634 34.43 22.1314 34.524 22.2614C34.618 22.3924 34.769 22.4694 34.93 22.4694ZM30.929 20.4694C31.205 20.4694 31.429 20.2454 31.429 19.9694C31.429 19.6934 31.653 19.4694 31.929 19.4694C32.205 19.4694 32.429 19.6934 32.429 19.9694V20.5544C32.429 20.6864 32.376 20.8154 32.283 20.9084L30.576 22.6154C30.433 22.7584 30.39 22.9734 30.468 23.1604C30.545 23.3474 30.728 23.4694 30.93 23.4694H32.93C33.207 23.4694 33.43 23.2454 33.43 22.9694C33.43 22.6934 33.206 22.4694 32.93 22.4694H32.137L32.99 21.6164C33.273 21.3324 33.429 20.9554 33.429 20.5554V19.9694C33.429 19.1424 32.756 18.4694 31.929 18.4694C31.102 18.4694 30.429 19.1424 30.429 19.9694C30.429 20.2454 30.653 20.4694 30.929 20.4694ZM36 31.0384C34.829 31.0384 33.68 30.8554 32.592 30.4954C32.062 30.3124 31.458 30.4534 31.109 30.8094L28.951 32.4384C26.476 31.1174 24.892 29.5344 23.589 27.0774L25.174 24.9724C25.574 24.5724 25.717 23.9894 25.545 23.4424C25.184 22.3474 25 21.1994 25 20.0294C25 19.2024 24.327 18.5294 23.5 18.5294H20C19.173 18.5294 18.5 19.2024 18.5 20.0294C18.5 29.6784 26.351 37.5294 36 37.5294C36.827 37.5294 37.5 36.8564 37.5 36.0284V32.5384C37.5 31.7114 36.827 31.0384 36 31.0384ZM36.5 36.0294C36.5 36.3055 36.276 36.5294 36 36.5294C26.902 36.5294 19.5 29.1274 19.5 20.0294C19.5 19.7534 19.724 19.5294 20 19.5294H23.5C23.776 19.5294 24 19.7534 24 20.0294C24 21.3064 24.2 22.5604 24.593 23.7494C24.651 23.9354 24.604 24.1284 24.421 24.3184L22.601 26.7284C22.486 26.8814 22.468 27.0864 22.554 27.2564C24.037 30.1694 25.838 31.9714 28.772 33.4744C28.942 33.5614 29.148 33.5444 29.301 33.4284L31.763 31.5634C31.896 31.4294 32.093 31.3834 32.273 31.4444C33.468 31.8394 34.722 32.0394 36 32.0394C36.276 32.0394 36.5 32.2634 36.5 32.5394V36.0294Z" fill="white"/>
</svg>
