<svg width="20" height="20" viewBox="0 0 20 20" fill="none" xmlns="http://www.w3.org/2000/svg">
<path d="M0.55542 3.88875C0.55542 2.85334 0.55542 2.33584 0.724587 1.92709C0.836304 1.65748 1.00004 1.41251 1.20644 1.20619C1.41283 0.999859 1.65785 0.836211 1.9275 0.724587C2.33584 0.55542 2.85334 0.55542 3.88875 0.55542H5.27792C6.31334 0.55542 6.83084 0.55542 7.23917 0.724587C7.50882 0.836211 7.75384 0.999859 7.96024 1.20619C8.16664 1.41251 8.33037 1.65748 8.44209 1.92709C8.61125 2.33542 8.61125 2.85334 8.61125 3.88875V5.2775C8.61125 6.31292 8.61125 6.83084 8.44209 7.23917C8.21642 7.78365 7.78373 8.2162 7.23917 8.44167C6.83084 8.61084 6.31334 8.61084 5.27792 8.61084H3.88875C2.85334 8.61084 2.33584 8.61084 1.9275 8.44167C1.65785 8.33005 1.41283 8.1664 1.20644 7.96007C1.00004 7.75374 0.836304 7.50878 0.724587 7.23917C0.55542 6.83084 0.55542 6.31292 0.55542 5.2775V3.88875Z" fill="#45EDF2"/>
<path fill-rule="evenodd" clip-rule="evenodd" d="M3.86917 0H5.2975C5.79833 0 6.2025 -4.19095e-08 6.53167 0.0225C6.86958 0.0454166 7.16875 0.0941667 7.45208 0.21125C8.13256 0.493282 8.67316 1.03403 8.955 1.71458C9.0725 1.99792 9.12125 2.29708 9.14417 2.63542C9.16667 2.96417 9.16667 3.36833 9.16667 3.86917V5.2975C9.16667 5.79833 9.16667 6.2025 9.14417 6.53167C9.12125 6.86958 9.0725 7.16875 8.955 7.45208C8.67311 8.1325 8.1325 8.67311 7.45208 8.955C7.16875 9.0725 6.86958 9.12125 6.53125 9.14417C6.2025 9.16667 5.79833 9.16667 5.2975 9.16667H3.86917C3.36833 9.16667 2.96417 9.16667 2.635 9.14417C2.29708 9.12125 1.99792 9.0725 1.71458 8.955C1.03403 8.67316 0.493282 8.13256 0.21125 7.45208C0.0941667 7.16875 0.0454166 6.86958 0.0225 6.53125C-4.19095e-08 6.20292 0 5.79875 0 5.29792V3.86958C0 3.36875 -4.19095e-08 2.96458 0.0225 2.63542C0.0454166 2.2975 0.0941667 1.99833 0.21125 1.715C0.493191 1.03437 1.03395 0.493608 1.71458 0.211667C1.99792 0.0945835 2.29708 0.0458335 2.63542 0.0229168C2.96375 1.27281e-07 3.36833 0 3.86917 0ZM2.71083 1.13083C2.42917 1.15 2.265 1.18625 2.14 1.23792C1.93777 1.32167 1.75401 1.44445 1.59923 1.59923C1.44445 1.75401 1.32167 1.93777 1.23792 2.14C1.18625 2.265 1.15042 2.42917 1.13083 2.71083C1.11125 2.9975 1.11125 3.36375 1.11125 3.88875V5.27792C1.11125 5.80292 1.11125 6.16958 1.13083 6.45583C1.15 6.7375 1.18625 6.90167 1.23792 7.02667C1.32167 7.2289 1.44445 7.41266 1.59923 7.56744C1.75401 7.72222 1.93777 7.84499 2.14 7.92875C2.265 7.98042 2.42917 8.01625 2.71083 8.03583C2.9975 8.05542 3.36375 8.05542 3.88875 8.05542H5.27792C5.80292 8.05542 6.16958 8.05542 6.45583 8.03583C6.7375 8.01667 6.90167 7.98042 7.02667 7.92875C7.2289 7.84499 7.41266 7.72222 7.56744 7.56744C7.72222 7.41266 7.84499 7.2289 7.92875 7.02667C7.98042 6.90167 8.01625 6.7375 8.03583 6.45583C8.05542 6.16917 8.05542 5.80292 8.05542 5.27792V3.88875C8.05542 3.36375 8.05542 2.99708 8.03583 2.71083C8.01667 2.42917 7.98042 2.265 7.92875 2.14C7.84499 1.93777 7.72222 1.75401 7.56744 1.59923C7.41266 1.44445 7.2289 1.32167 7.02667 1.23792C6.90167 1.18625 6.7375 1.15042 6.45583 1.13083C6.16917 1.11125 5.80292 1.11125 5.27792 1.11125H3.88875C3.36375 1.11125 2.99708 1.11125 2.71083 1.13083Z" fill="#45EDF2"/>
<path d="M0.55542 14.7221C0.55542 13.6867 0.55542 13.1692 0.724587 12.7604C0.836304 12.4908 1.00004 12.2459 1.20644 12.0395C1.41283 11.8332 1.65785 11.6696 1.9275 11.5579C2.33584 11.3888 2.85334 11.3888 3.88875 11.3888H5.27792C6.31334 11.3888 6.83084 11.3888 7.23917 11.5579C7.50882 11.6696 7.75384 11.8332 7.96024 12.0395C8.16664 12.2459 8.33037 12.4908 8.44209 12.7604C8.61125 13.1688 8.61125 13.6867 8.61125 14.7221V16.1108C8.61125 17.1463 8.61125 17.6642 8.44209 18.0725C8.21642 18.617 7.78373 19.0495 7.23917 19.275C6.83084 19.4442 6.31334 19.4442 5.27792 19.4442H3.88875C2.85334 19.4442 2.33584 19.4442 1.9275 19.275C1.65785 19.1634 1.41283 18.9997 1.20644 18.7934C1.00004 18.5871 0.836304 18.3421 0.724587 18.0725C0.55542 17.6642 0.55542 17.1463 0.55542 16.1108V14.7221Z" fill="#FDCA01"/>
<path fill-rule="evenodd" clip-rule="evenodd" d="M3.86917 10.8333H5.2975C5.79833 10.8333 6.2025 10.8333 6.53167 10.8558C6.86958 10.8788 7.16875 10.9275 7.45208 11.0446C8.13258 11.3266 8.6732 11.8673 8.955 12.5479C9.0725 12.8313 9.12125 13.1304 9.14417 13.4688C9.16667 13.7975 9.16667 14.2017 9.16667 14.7025V16.1308C9.16667 16.6317 9.16667 17.0358 9.14417 17.365C9.12125 17.7029 9.0725 18.0021 8.955 18.2854C8.6732 18.966 8.13258 19.5068 7.45208 19.7888C7.16875 19.9058 6.86958 19.9546 6.53125 19.9775C6.2025 20 5.79833 20 5.2975 20H3.86917C3.36833 20 2.96417 20 2.635 19.9775C2.29708 19.9546 1.99792 19.9058 1.71458 19.7888C1.03395 19.5068 0.493191 18.9661 0.21125 18.2854C0.0941667 18.0021 0.0454166 17.7029 0.0225 17.3646C-4.19095e-08 17.0363 0 16.6321 0 16.1313V14.7029C0 14.2021 -4.19095e-08 13.7979 0.0225 13.4688C0.0454166 13.1308 0.0941667 12.8317 0.21125 12.5483C0.493191 11.8677 1.03395 11.327 1.71458 11.045C1.99792 10.9279 2.29708 10.8792 2.63542 10.8563C2.96375 10.8333 3.36833 10.8333 3.86917 10.8333ZM2.71083 11.9642C2.42917 11.9833 2.265 12.0196 2.14 12.0713C1.93777 12.155 1.75401 12.2778 1.59923 12.4326C1.44445 12.5874 1.32167 12.7711 1.23792 12.9733C1.18625 13.0983 1.15042 13.2625 1.13083 13.5442C1.11125 13.8308 1.11125 14.1971 1.11125 14.7221V16.1113C1.11125 16.6363 1.11125 17.0029 1.13083 17.2892C1.15 17.5708 1.18625 17.735 1.23792 17.86C1.32167 18.0622 1.44445 18.246 1.59923 18.4008C1.75401 18.5556 1.93777 18.6783 2.14 18.7621C2.265 18.8138 2.42917 18.8496 2.71083 18.8692C2.9975 18.8888 3.36375 18.8888 3.88875 18.8888H5.27792C5.80292 18.8888 6.16958 18.8888 6.45583 18.8692C6.7375 18.85 6.90167 18.8138 7.02667 18.7621C7.2289 18.6783 7.41266 18.5556 7.56744 18.4008C7.72222 18.246 7.84499 18.0622 7.92875 17.86C7.98042 17.735 8.01625 17.5708 8.03583 17.2892C8.05542 17.0025 8.05542 16.6363 8.05542 16.1113V14.7221C8.05542 14.1971 8.05542 13.8304 8.03583 13.5442C8.01667 13.2625 7.98042 13.0983 7.92875 12.9733C7.84499 12.7711 7.72222 12.5874 7.56744 12.4326C7.41266 12.2778 7.2289 12.155 7.02667 12.0713C6.90167 12.0196 6.7375 11.9838 6.45583 11.9642C6.16917 11.9446 5.80292 11.9446 5.27792 11.9446H3.88875C3.36375 11.9446 2.99708 11.9446 2.71083 11.9642Z" fill="#FDCA01"/>
<path d="M11.3888 3.88875C11.3888 2.85334 11.3888 2.33584 11.558 1.92709C11.6697 1.65748 11.8334 1.41251 12.0398 1.20619C12.2462 0.999859 12.4912 0.836211 12.7609 0.724587C13.1692 0.55542 13.6867 0.55542 14.7221 0.55542H16.1113C17.1467 0.55542 17.6642 0.55542 18.0725 0.724587C18.3422 0.836211 18.5872 0.999859 18.7936 1.20619C19 1.41251 19.1637 1.65748 19.2755 1.92709C19.4446 2.33542 19.4446 2.85334 19.4446 3.88875V5.2775C19.4446 6.31292 19.4446 6.83084 19.2755 7.23917C19.0498 7.78365 18.6171 8.2162 18.0725 8.44167C17.6642 8.61084 17.1467 8.61084 16.1113 8.61084H14.7221C13.6867 8.61084 13.1692 8.61084 12.7609 8.44167C12.2163 8.2162 11.7836 7.78365 11.558 7.23917C11.3888 6.83084 11.3888 6.31292 11.3888 5.2775V3.88875Z" fill="#FDCA01"/>
<path fill-rule="evenodd" clip-rule="evenodd" d="M14.7025 0H16.1309C16.6317 0 17.0359 -4.19095e-08 17.365 0.0225C17.703 0.0454166 18.0021 0.0941667 18.2855 0.21125C18.9661 0.493191 19.5069 1.03395 19.7888 1.71458C19.9059 1.99792 19.9546 2.29708 19.9775 2.63542C20 2.96417 20 3.36833 20 3.86917V5.2975C20 5.79833 20 6.2025 19.9775 6.53167C19.9546 6.86958 19.9059 7.16875 19.7888 7.45208C19.5068 8.13258 18.966 8.6732 18.2855 8.955C18.0021 9.0725 17.703 9.12125 17.3646 9.14417C17.0359 9.16667 16.6317 9.16667 16.1309 9.16667H14.7025C14.2017 9.16667 13.7975 9.16667 13.4684 9.14417C13.1305 9.12125 12.8313 9.0725 12.548 8.955C11.8674 8.6732 11.3266 8.13258 11.0446 7.45208C10.9275 7.16875 10.8788 6.86958 10.8559 6.53125C10.8334 6.20292 10.8334 5.79875 10.8334 5.29792V3.86958C10.8334 3.36875 10.8334 2.96458 10.8559 2.63542C10.8788 2.2975 10.9275 1.99833 11.0446 1.715C11.3266 1.03437 11.8673 0.493608 12.548 0.211667C12.8313 0.0945835 13.1305 0.0458335 13.4688 0.0229168C13.7971 1.27281e-07 14.2013 0 14.7021 0H14.7025ZM13.5442 1.13083C13.2625 1.15 13.0984 1.18625 12.9734 1.23792C12.7711 1.32167 12.5874 1.44445 12.4326 1.59923C12.2778 1.75401 12.155 1.93777 12.0713 2.14C12.0196 2.265 11.9838 2.42917 11.9642 2.71083C11.9446 2.9975 11.9446 3.36375 11.9446 3.88875V5.27792C11.9446 5.80292 11.9446 6.16958 11.9642 6.45583C11.9834 6.7375 12.0196 6.90167 12.0713 7.02667C12.155 7.2289 12.2778 7.41266 12.4326 7.56744C12.5874 7.72222 12.7711 7.84499 12.9734 7.92875C13.0984 7.98042 13.2625 8.01625 13.5442 8.03583C13.8309 8.05542 14.1971 8.05542 14.7221 8.05542H16.1113C16.6363 8.05542 17.003 8.05542 17.2892 8.03583C17.5709 8.01667 17.735 7.98042 17.86 7.92875C18.0623 7.84499 18.246 7.72222 18.4008 7.56744C18.5556 7.41266 18.6784 7.2289 18.7621 7.02667C18.8138 6.90167 18.8496 6.7375 18.8692 6.45583C18.8888 6.16917 18.8888 5.80292 18.8888 5.27792V3.88875C18.8888 3.36375 18.8888 2.99708 18.8692 2.71083C18.85 2.42917 18.8138 2.265 18.7621 2.14C18.6784 1.93777 18.5556 1.75401 18.4008 1.59923C18.246 1.44445 18.0623 1.32167 17.86 1.23792C17.735 1.18625 17.5709 1.15042 17.2892 1.13083C17.0025 1.11125 16.6363 1.11125 16.1113 1.11125H14.7221C14.1971 1.11125 13.8305 1.11125 13.5442 1.13083V1.13083Z" fill="#FDCA01"/>
<path d="M11.3888 14.7221C11.3888 13.6867 11.3888 13.1692 11.558 12.7604C11.6697 12.4908 11.8334 12.2459 12.0398 12.0395C12.2462 11.8332 12.4912 11.6696 12.7609 11.5579C13.1692 11.3888 13.6867 11.3888 14.7221 11.3888H16.1113C17.1467 11.3888 17.6642 11.3888 18.0725 11.5579C18.3422 11.6696 18.5872 11.8332 18.7936 12.0395C19 12.2459 19.1637 12.4908 19.2755 12.7604C19.4446 13.1688 19.4446 13.6867 19.4446 14.7221V16.1108C19.4446 17.1463 19.4446 17.6642 19.2755 18.0725C19.0498 18.617 18.6171 19.0495 18.0725 19.275C17.6642 19.4442 17.1467 19.4442 16.1113 19.4442H14.7221C13.6867 19.4442 13.1692 19.4442 12.7609 19.275C12.2163 19.0495 11.7836 18.617 11.558 18.0725C11.3888 17.6642 11.3888 17.1463 11.3888 16.1108V14.7221Z" fill="#45EDF2"/>
<path fill-rule="evenodd" clip-rule="evenodd" d="M14.7025 10.8333H16.1309C16.6317 10.8333 17.0359 10.8333 17.365 10.8558C17.703 10.8788 18.0021 10.9275 18.2855 11.0446C18.6225 11.1842 18.9287 11.3888 19.1867 11.6467C19.4446 11.9047 19.6492 12.2109 19.7888 12.5479C19.9059 12.8313 19.9546 13.1304 19.9775 13.4688C20 13.7975 20 14.2017 20 14.7025V16.1308C20 16.6317 20 17.0358 19.9775 17.365C19.9546 17.7029 19.9059 18.0021 19.7888 18.2854C19.6492 18.6225 19.4446 18.9287 19.1867 19.1866C18.9287 19.4446 18.6225 19.6492 18.2855 19.7888C18.0021 19.9058 17.703 19.9546 17.3646 19.9775C17.0359 20 16.6317 20 16.1309 20H14.7025C14.2017 20 13.7975 20 13.4684 19.9775C13.1305 19.9546 12.8313 19.9058 12.548 19.7888C12.2109 19.6492 11.9047 19.4446 11.6468 19.1866C11.3888 18.9287 11.1842 18.6225 11.0446 18.2854C10.9275 18.0021 10.8788 17.7029 10.8559 17.3646C10.8334 17.0363 10.8334 16.6321 10.8334 16.1313V14.7029C10.8334 14.2021 10.8334 13.7979 10.8559 13.4688C10.8788 13.1308 10.9275 12.8317 11.0446 12.5483C11.1842 12.2113 11.3888 11.9051 11.6468 11.6471C11.9047 11.3892 12.2109 11.1846 12.548 11.045C12.8313 10.9279 13.1305 10.8792 13.4688 10.8563C13.7971 10.8333 14.2013 10.8333 14.7021 10.8333H14.7025ZM13.5442 11.9642C13.2625 11.9833 13.0984 12.0196 12.9734 12.0713C12.7711 12.155 12.5874 12.2778 12.4326 12.4326C12.2778 12.5874 12.155 12.7711 12.0713 12.9733C12.0196 13.0983 11.9838 13.2625 11.9642 13.5442C11.9446 13.8308 11.9446 14.1971 11.9446 14.7221V16.1113C11.9446 16.6363 11.9446 17.0029 11.9642 17.2892C11.9834 17.5708 12.0196 17.735 12.0713 17.86C12.155 18.0622 12.2778 18.246 12.4326 18.4008C12.5874 18.5556 12.7711 18.6783 12.9734 18.7621C13.0984 18.8138 13.2625 18.8496 13.5442 18.8692C13.8309 18.8888 14.1971 18.8888 14.7221 18.8888H16.1113C16.6363 18.8888 17.003 18.8888 17.2892 18.8692C17.5709 18.85 17.735 18.8138 17.86 18.7621C18.0623 18.6783 18.246 18.5556 18.4008 18.4008C18.5556 18.246 18.6784 18.0622 18.7621 17.86C18.8138 17.735 18.8496 17.5708 18.8692 17.2892C18.8888 17.0025 18.8888 16.6363 18.8888 16.1113V14.7221C18.8888 14.1971 18.8888 13.8304 18.8692 13.5442C18.85 13.2625 18.8138 13.0983 18.7621 12.9733C18.6784 12.7711 18.5556 12.5874 18.4008 12.4326C18.246 12.2778 18.0623 12.155 17.86 12.0713C17.735 12.0196 17.5709 11.9838 17.2892 11.9642C17.0025 11.9446 16.6363 11.9446 16.1113 11.9446H14.7221C14.1971 11.9446 13.8305 11.9446 13.5442 11.9642Z" fill="#45EDF2"/>
</svg>
