<svg width="24" height="24" viewBox="0 0 24 24" fill="none" xmlns="http://www.w3.org/2000/svg">
<path d="M9.92154 2.57125C11.2077 1.80958 12.7923 1.80958 14.0785 2.57125L18.9215 5.43932C20.2077 6.20099 21 7.6086 21 9.13192V14.8681C21 16.3914 20.2077 17.799 18.9215 18.5607L14.0785 21.4288C12.7923 22.1904 11.2077 22.1904 9.92154 21.4288L5.07846 18.5607C3.7923 17.799 3 16.3914 3 14.8681V9.13192C3 7.6086 3.7923 6.20099 5.07846 5.43932L9.92154 2.57125Z" fill="#E8E8FC" fill-opacity="0.3"/>
<path d="M12.0001 10.5002C10.7595 10.5002 9.75 9.49066 9.75 8.2501C9.75 7.00955 10.7595 6 12.0001 6C13.2407 6 14.2502 7.00955 14.2502 8.2501C14.2502 9.49066 13.2407 10.5002 12.0001 10.5002ZM12.0001 7.50007C11.5868 7.50007 11.2501 7.83608 11.2501 8.2501C11.2501 8.66412 11.5868 9.00014 12.0001 9.00014C12.4134 9.00014 12.7501 8.66412 12.7501 8.2501C12.7501 7.83608 12.4134 7.50007 12.0001 7.50007Z" fill="#E8E8FC"/>
<path d="M12.0046 18.7498C11.2996 18.7498 10.6156 18.506 10.071 18.0485C9.39077 17.477 9 16.6392 9 15.7504C9 15.3356 9.33602 15.0004 9.75003 15.0004C10.1641 15.0004 10.5001 15.3356 10.5001 15.7504C10.5001 16.1952 10.6958 16.6137 11.0363 16.8994C11.3821 17.1905 11.8239 17.306 12.2784 17.2257C12.8687 17.1222 13.3719 16.6182 13.4755 16.0287C13.6 15.3191 13.2287 14.6343 12.5724 14.3628C11.7691 14.0306 11.2501 13.2265 11.2501 12.3152V10.5002C11.2501 10.0854 11.5861 9.75012 12.0001 9.75012C12.4142 9.75012 12.7502 10.0854 12.7502 10.5002V12.3152C12.7502 12.613 12.9092 12.8793 13.1462 12.9775C14.4565 13.519 15.1998 14.8804 14.953 16.2882C14.7408 17.498 13.7477 18.4918 12.5379 18.704C12.3602 18.7348 12.1816 18.7498 12.0046 18.7498Z" fill="#E8E8FC"/>
</svg>
