<svg width="24" height="24" viewBox="0 0 24 24" fill="none" xmlns="http://www.w3.org/2000/svg">
<path d="M17.3034 19.5373L17.8337 19.007L17.8337 19.007L17.3034 19.5373ZM19.5373 17.3034L20.0677 16.7731L20.0677 16.7731L19.5373 17.3034ZM18.5303 15.2357C18.2374 14.9428 17.7625 14.9428 17.4696 15.2357C17.1768 15.5286 17.1768 16.0035 17.4697 16.2964L18.5303 15.2357ZM16.2964 17.4697C16.0035 17.1768 15.5286 17.1768 15.2357 17.4697C14.9428 17.7626 14.9428 18.2374 15.2357 18.5303L16.2964 17.4697ZM4.75 10.8C4.75 7.45868 7.45867 4.75 10.8 4.75V3.25C6.63025 3.25 3.25 6.63025 3.25 10.8H4.75ZM10.8 4.75C14.1413 4.75 16.85 7.45868 16.85 10.8H18.35C18.35 6.63025 14.9697 3.25 10.8 3.25V4.75ZM16.85 10.8C16.85 14.1413 14.1413 16.85 10.8 16.85V18.35C14.9697 18.35 18.35 14.9697 18.35 10.8H16.85ZM10.8 16.85C7.45867 16.85 4.75 14.1413 4.75 10.8H3.25C3.25 14.9697 6.63025 18.35 10.8 18.35V16.85ZM19.007 19.007C18.683 19.331 18.1577 19.331 17.8337 19.007L16.7731 20.0677C17.6828 20.9774 19.1579 20.9774 20.0677 20.0677L19.007 19.007ZM19.007 17.8337C19.331 18.1577 19.331 18.683 19.007 19.007L20.0677 20.0677C20.9774 19.1579 20.9774 17.6828 20.0677 16.7731L19.007 17.8337ZM17.4697 16.2964L19.007 17.8337L20.0677 16.7731L18.5303 15.2357L17.4697 16.2964ZM17.8337 19.007L16.2964 17.4697L15.2357 18.5303L16.7731 20.0677L17.8337 19.007Z" fill="#E8E8FC"/>
</svg>
